<svg width="133" height="30" viewBox="0 0 133 30" fill="none" xmlns="http://www.w3.org/2000/svg">
<path d="M0.533325 23.5508V1.32296H8.08978C9.97889 1.32296 11.5951 1.62559 12.9385 2.23085C14.3029 2.83612 15.3419 3.71271 16.0555 4.86062C16.7692 6.00854 17.126 7.39647 17.126 9.02443C17.126 10.1515 16.9056 11.1846 16.4648 12.1238C16.045 13.063 15.4363 13.877 14.6387 14.5657C13.8621 15.2336 12.928 15.7554 11.8365 16.1311C10.745 16.4859 9.5276 16.6633 8.18423 16.6633C7.47057 16.6633 6.71492 16.6007 5.9173 16.4754V23.5508H0.533325ZM5.9173 5.86244V11.9673C6.65195 12.0716 7.32364 12.1238 7.93235 12.1238C9.1078 12.1238 10.0104 11.8629 10.6401 11.3411C11.2908 10.7985 11.6161 10.0158 11.6161 8.99312C11.6161 7.9913 11.3013 7.21907 10.6716 6.67642C10.0628 6.13377 9.17077 5.86244 7.99532 5.86244H5.9173Z" fill=""/>
<path d="M26.1223 24.0204C24.8629 24.0204 23.6874 23.8012 22.5959 23.3629C21.5254 22.9246 20.5809 22.3089 19.7623 21.5158C18.9646 20.7227 18.3454 19.794 17.9046 18.7295C17.4638 17.6651 17.2434 16.5067 17.2434 15.2545C17.2434 14.0022 17.4638 12.8439 17.9046 11.7794C18.3664 10.6941 18.9961 9.75492 19.7937 8.96181C20.6124 8.14784 21.5674 7.5217 22.6589 7.08341C23.7714 6.62424 24.9678 6.39466 26.2482 6.39466C27.5076 6.39466 28.6726 6.6138 29.7431 7.0521C30.8346 7.49039 31.7791 8.11653 32.5767 8.93051C33.3953 9.72361 34.0251 10.6524 34.4658 11.7168C34.9066 12.7812 35.127 13.9396 35.127 15.1919C35.127 16.4441 34.8961 17.6129 34.4344 18.6982C33.9936 19.7627 33.3639 20.6914 32.5452 21.4845C31.7476 22.2776 30.7926 22.9038 29.6801 23.3629C28.5886 23.8012 27.4027 24.0204 26.1223 24.0204ZM26.1852 19.4183C26.8779 19.4183 27.5076 19.2409 28.0743 18.8861C28.6411 18.5104 29.0819 18.0095 29.3967 17.3833C29.7326 16.7363 29.9005 16.0163 29.9005 15.2232C29.9005 14.4092 29.7326 13.6891 29.3967 13.063C29.0819 12.416 28.6411 11.9151 28.0743 11.5603C27.5076 11.1846 26.8779 10.9968 26.1852 10.9968C25.4926 10.9968 24.8629 11.1846 24.2961 11.5603C23.7294 11.9151 23.2781 12.416 22.9423 13.063C22.6274 13.6891 22.47 14.4092 22.47 15.2232C22.47 16.0163 22.6274 16.7363 22.9423 17.3833C23.2781 18.0095 23.7294 18.5104 24.2961 18.8861C24.8629 19.2409 25.4926 19.4183 26.1852 19.4183Z" fill=""/>
<path d="M36.4158 23.5508V0.133301H41.5479V23.5508H36.4158Z" fill=""/>
<path d="M46.6734 30C46.0647 30 45.4875 29.9374 44.9417 29.8121C44.396 29.6869 43.8817 29.4886 43.3989 29.2173L44.312 25.304C44.5429 25.4083 44.8158 25.5022 45.1306 25.5857C45.4665 25.6692 45.7813 25.7109 46.0752 25.7109C46.6419 25.7109 47.1352 25.5335 47.555 25.1787C47.9748 24.8448 48.3316 24.3126 48.6255 23.5821L48.7514 23.3003L42.0451 6.86426H47.6809L51.1443 17.8216L54.2298 6.86426H59.6768L53.0019 24.7404C52.3302 26.5354 51.4801 27.8607 50.4516 28.7164C49.4231 29.5721 48.1637 30 46.6734 30Z" fill=""/>
<path d="M64.747 23.5508L59.2056 6.86426H64.5581L67.2028 17.4146L70.2254 6.86426H74.7593L77.7818 17.4773L80.5211 6.86426H85.6846L80.1432 23.5508H75.389L72.4294 13.0943L69.4383 23.5508H64.747Z" fill=""/>
<path d="M93.8111 24.0204C92.5517 24.0204 91.3762 23.8012 90.2847 23.3629C89.2142 22.9246 88.2697 22.3089 87.4511 21.5158C86.6534 20.7227 86.0342 19.794 85.5934 18.7295C85.1526 17.6651 84.9322 16.5067 84.9322 15.2545C84.9322 14.0022 85.1526 12.8439 85.5934 11.7794C86.0552 10.6941 86.6849 9.75492 87.4825 8.96181C88.3012 8.14784 89.2562 7.5217 90.3477 7.08341C91.4602 6.62424 92.6566 6.39466 93.937 6.39466C95.1964 6.39466 96.3614 6.6138 97.4319 7.0521C98.5234 7.49039 99.4679 8.11653 100.266 8.93051C101.084 9.72361 101.714 10.6524 102.155 11.7168C102.595 12.7812 102.816 13.9396 102.816 15.1919C102.816 16.4441 102.585 17.6129 102.123 18.6982C101.682 19.7627 101.053 20.6914 100.234 21.4845C99.4364 22.2776 98.4814 22.9038 97.3689 23.3629C96.2774 23.8012 95.0915 24.0204 93.8111 24.0204ZM93.8741 19.4183C94.5667 19.4183 95.1964 19.2409 95.7632 18.8861C96.3299 18.5104 96.7707 18.0095 97.0855 17.3833C97.4214 16.7363 97.5893 16.0163 97.5893 15.2232C97.5893 14.4092 97.4214 13.6891 97.0855 13.063C96.7707 12.416 96.3299 11.9151 95.7632 11.5603C95.1964 11.1846 94.5667 10.9968 93.8741 10.9968C93.1814 10.9968 92.5517 11.1846 91.9849 11.5603C91.4182 11.9151 90.9669 12.416 90.6311 13.063C90.3162 13.6891 90.1588 14.4092 90.1588 15.2232C90.1588 16.0163 90.3162 16.7363 90.6311 17.3833C90.9669 18.0095 91.4182 18.5104 91.9849 18.8861C92.5517 19.2409 93.1814 19.4183 93.8741 19.4183Z" fill=""/>
<path d="M104.105 23.5508V6.86426H108.827L109.016 9.52533C109.415 8.607 109.971 7.89738 110.685 7.39647C111.399 6.89556 112.228 6.64511 113.172 6.64511C113.445 6.64511 113.718 6.66598 113.991 6.70772C114.264 6.74947 114.505 6.82252 114.715 6.92687L114.211 11.9986C113.98 11.9151 113.739 11.8629 113.487 11.842C113.256 11.8003 113.015 11.7794 112.763 11.7794C111.588 11.7794 110.706 12.1134 110.118 12.7812C109.531 13.4282 109.237 14.3779 109.237 15.6302V23.5508H104.105Z" fill=""/>
<path d="M115.546 23.5508V0.133301H120.678V13.5326L126.22 6.86426H132.044L125.621 14.2527L132.8 23.5508H126.471L120.678 15.3484V23.5508H115.546Z" fill=""/>
</svg>
