<svg width="17" height="14" viewBox="0 0 17 14" fill="none" xmlns="http://www.w3.org/2000/svg">
<path d="M16.5 1.5392C15.9114 1.80032 15.2786 1.97672 14.6147 2.05608C15.2924 1.64984 15.813 1.00656 16.058 0.240002C15.4237 0.616242 14.7212 0.889361 13.9734 1.03656C13.3747 0.39856 12.5216 0 11.5774 0C9.76463 0 8.29479 1.46968 8.29479 3.28249C8.29479 3.53977 8.32383 3.79033 8.37983 4.03057C5.65166 3.89369 3.23294 2.5868 1.6139 0.600801C1.33133 1.0856 1.16941 1.64944 1.16941 2.25105C1.16941 3.38993 1.74894 4.39465 2.62974 4.98329C2.09166 4.96625 1.58549 4.81857 1.14293 4.57273C1.14256 4.58641 1.14256 4.60017 1.14256 4.61401C1.14256 6.20441 2.27408 7.53105 3.77577 7.83281C3.50033 7.90785 3.21032 7.94793 2.91096 7.94793C2.69944 7.94793 2.49385 7.92729 2.29337 7.88905C2.71113 9.19314 3.92337 10.1422 5.35985 10.1686C4.23641 11.0491 2.82104 11.5739 1.28304 11.5739C1.01808 11.5739 0.756801 11.5583 0.5 11.5279C1.95272 12.4594 3.67817 13.0028 5.53193 13.0028C11.5698 13.0028 14.8716 8.00097 14.8716 3.66304C14.8716 3.52073 14.8684 3.3792 14.8621 3.23832C15.5034 2.7756 16.0599 2.19752 16.5 1.5392Z" fill="#2AA9E0"/>
</svg>
